<?xml version="1.0" standalone="no"?>
<!DOCTYPE svg PUBLIC "-//W3C//DTD SVG 20010904//EN"
 "http://www.w3.org/TR/2001/REC-SVG-20010904/DTD/svg10.dtd">
<svg version="1.0" xmlns="http://www.w3.org/2000/svg"
 width="800.000000pt" height="800.000000pt" viewBox="0 0 800.000000 800.000000"
 preserveAspectRatio="xMidYMid meet">

<g transform="translate(0.000000,800.000000) scale(0.100000,-0.100000)"
fill="#000000" stroke="none">
<path d="M3903 6892 c-69 -25 -91 -43 -352 -282 -122 -113 -341 -313 -486
-445 -144 -132 -414 -379 -600 -550 -340 -312 -481 -442 -1078 -988 -281 -257
-330 -306 -353 -354 -62 -126 -37 -230 84 -356 117 -120 217 -157 333 -124 44
13 76 36 174 121 66 58 123 106 128 106 4 0 7 -607 7 -1348 l0 -1349 31 -62
c22 -44 45 -72 78 -96 91 -67 84 -66 722 -63 l574 3 57 28 c62 30 116 87 145
153 17 36 18 105 21 997 l2 957 665 0 664 0 3 -958 c3 -735 7 -966 16 -994 21
-63 73 -120 137 -153 l59 -30 615 0 c583 0 619 1 666 19 70 27 140 96 165 162
20 54 20 72 20 1380 l0 1326 70 -61 c77 -66 101 -76 160 -68 70 9 132 48 222
139 112 112 142 168 143 263 0 57 -5 81 -27 126 -29 58 -53 81 -463 439 -77
67 -239 208 -359 314 -120 105 -299 261 -396 346 -98 85 -260 227 -360 315
-100 88 -262 230 -360 315 -97 85 -277 243 -400 350 -122 107 -270 237 -329
288 -58 51 -130 104 -159 119 -71 34 -167 41 -239 15z"/>
</g>
</svg>
